<?xml version="1.0" encoding="UTF-8"?>
<svg version="1.1" xmlns="http://www.w3.org/2000/svg" width="500" height="500">
<path d="M0 0 C0.81984375 0.61359375 1.6396875 1.2271875 2.484375 1.859375 C17.4465008 13.4759323 30.91731721 27.66138534 42 43 C42.85334392 44.14774758 43.70752439 45.29487362 44.5625 46.44140625 C65.06569554 74.2249474 79.82690682 106.74941342 86.75 140.5625 C87.04825684 142.01414551 87.04825684 142.01414551 87.35253906 143.49511719 C90.31127706 158.80645946 91.3865715 174.05433854 91.3125 189.625 C91.31034485 190.44938568 91.3081897 191.27377136 91.30596924 192.12313843 C91.0868489 244.66452226 74.07698987 296.80746615 41 338 C40.28585937 338.90492188 39.57171875 339.80984375 38.8359375 340.7421875 C27.27282672 355.16543169 14.54617634 368.56666624 0 380 C-1.51400391 381.22203125 -1.51400391 381.22203125 -3.05859375 382.46875 C-10.35443519 388.29572843 -17.95680644 393.25478783 -26.05859375 397.88671875 C-28.0062997 399.00361251 -29.94088381 400.14101651 -31.875 401.28125 C-55.41513717 415.01960166 -81.21066753 424.07717395 -108 429 C-109.32644531 429.24556641 -109.32644531 429.24556641 -110.6796875 429.49609375 C-137.64511808 434.22481418 -167.09385505 433.86698185 -194 429 C-194.9266748 428.83902832 -195.85334961 428.67805664 -196.80810547 428.51220703 C-226.69693119 423.17070187 -255.60104001 411.65415764 -281 395 C-281.66080566 394.566875 -282.32161133 394.13375 -283.00244141 393.6875 C-291.72789629 387.9183333 -300.08142891 381.8511775 -308 375 C-308.78117187 374.3296875 -309.56234375 373.659375 -310.3671875 372.96875 C-321.79427066 362.92790316 -332.82023923 352.15106323 -342 340 C-342.47614746 339.37851074 -342.95229492 338.75702148 -343.44287109 338.11669922 C-374.8743456 296.88306553 -393.20641512 247.00986978 -394 195 C-394.01321289 194.17218018 -394.02642578 193.34436035 -394.04003906 192.49145508 C-394.47166424 140.18505143 -378.16882834 86.59865186 -346 45 C-345.1832689 43.91560918 -344.36688119 42.83095966 -343.55078125 41.74609375 C-306.09502264 -7.50850709 -249.39208086 -41.30247456 -188.13037109 -50.58642578 C-120.15663677 -59.49696789 -54.17225168 -42.06672058 0 0 Z " fill="#020202" transform="translate(401,60)"/>
<path d="M0 0 C0.05058332 7.2265322 0.08568412 14.45301899 0.10986328 21.6796875 C0.11993983 24.13966579 0.13360131 26.59963206 0.15087891 29.05957031 C0.17505461 32.58922285 0.1864664 36.11871747 0.1953125 39.6484375 C0.20563507 40.75367767 0.21595764 41.85891785 0.22659302 42.99765015 C0.22674408 44.01855743 0.22689514 45.03946472 0.22705078 46.09130859 C0.231492 46.99287689 0.23593323 47.89444519 0.24050903 48.82333374 C0 51 0 51 -2 53 C-2.99 53 -3.98 53 -5 53 C-5 53.66 -5 54.32 -5 55 C-6.65 55.33 -8.3 55.66 -10 56 C-10 56.66 -10 57.32 -10 58 C-10.99 58 -11.98 58 -13 58 C-13 58.66 -13 59.32 -13 60 C-13.77085937 60.40992188 -14.54171875 60.81984375 -15.3359375 61.2421875 C-16.33882813 61.78101563 -17.34171875 62.31984375 -18.375 62.875 C-19.37273437 63.40867188 -20.37046875 63.94234375 -21.3984375 64.4921875 C-24.05348395 65.8820138 -24.05348395 65.8820138 -26 68 C-28.32275177 68.40047444 -30.65739357 68.7397104 -33 69 C-33 69.66 -33 70.32 -33 71 C-33.99 71 -34.98 71 -36 71 C-36 71.66 -36 72.32 -36 73 C-37.65 73.33 -39.3 73.66 -41 74 C-41 74.66 -41 75.32 -41 76 C-41.99 76 -42.98 76 -44 76 C-44 76.66 -44 77.32 -44 78 C-46.97 78.495 -46.97 78.495 -50 79 C-50 79.66 -50 80.32 -50 81 C-50.99 81 -51.98 81 -53 81 C-53 81.66 -53 82.32 -53 83 C-55.475 83.495 -55.475 83.495 -58 84 C-58 84.66 -58 85.32 -58 86 C-58.99 86 -59.98 86 -61 86 C-61 86.66 -61 87.32 -61 88 C-63.475 88.495 -63.475 88.495 -66 89 C-66 89.66 -66 90.32 -66 91 C-67.93370231 92.00732399 -69.87210306 93.00563288 -71.8125 94 C-72.89144531 94.556875 -73.97039062 95.11375 -75.08203125 95.6875 C-78 97 -78 97 -81 97 C-81.99 98.98 -81.99 98.98 -83 101 C-83.66 101 -84.32 101 -85 101 C-85 101.66 -85 102.32 -85 103 C-86.093125 103.37125 -87.18625 103.7425 -88.3125 104.125 C-93.03909223 105.87527655 -97.31333659 108.29356732 -101.6796875 110.79296875 C-104 112 -104 112 -106 112 C-106 112.66 -106 113.32 -106 114 C-106.99 114 -107.98 114 -109 114 C-109 114.66 -109 115.32 -109 116 C-111.475 116.495 -111.475 116.495 -114 117 C-114 117.66 -114 118.32 -114 119 C-114.99 119 -115.98 119 -117 119 C-117 119.66 -117 120.32 -117 121 C-118.43429001 121.67354499 -119.87257057 122.33859701 -121.3125 123 C-122.11300781 123.37125 -122.91351563 123.7425 -123.73828125 124.125 C-126 125 -126 125 -129 125 C-129 125.66 -129 126.32 -129 127 C-129.99 127 -130.98 127 -132 127 C-132 127.66 -132 128.32 -132 129 C-133.65 129.33 -135.3 129.66 -137 130 C-137 130.66 -137 131.32 -137 132 C-137.75925781 132.40992188 -138.51851562 132.81984375 -139.30078125 133.2421875 C-140.29464844 133.78101563 -141.28851563 134.31984375 -142.3125 134.875 C-143.29863281 135.40867188 -144.28476563 135.94234375 -145.30078125 136.4921875 C-148.09586458 138.00722126 -148.09586458 138.00722126 -151 140 C-151.99 140 -152.98 140 -154 140 C-154 140.66 -154 141.32 -154 142 C-155.98 142.33 -157.96 142.66 -160 143 C-160 143.66 -160 144.32 -160 145 C-161.65 145.33 -163.3 145.66 -165 146 C-165 146.66 -165 147.32 -165 148 C-165.99 148 -166.98 148 -168 148 C-168 148.66 -168 149.32 -168 150 C-169.65 150.66 -171.3 151.32 -173 152 C-173 152.66 -173 153.32 -173 154 C-174.93370231 155.00732399 -176.87210306 156.00563288 -178.8125 157 C-179.89144531 157.556875 -180.97039062 158.11375 -182.08203125 158.6875 C-185 160 -185 160 -188 160 C-188 160.66 -188 161.32 -188 162 C-190.90548882 164.04169485 -192.40142046 165 -196 165 C-196 165.66 -196 166.32 -196 167 C-197.98 167.33 -199.96 167.66 -202 168 C-202 168.66 -202 169.32 -202 170 C-202.99 170 -203.98 170 -205 170 C-205 170.66 -205 171.32 -205 172 C-205.66 172 -206.32 172 -207 172 C-207 172.66 -207 173.32 -207 174 C-208.98 174.33 -210.96 174.66 -213 175 C-213 175.66 -213 176.32 -213 177 C-214.43640171 177.19573608 -215.87419504 177.38127816 -217.3125 177.5625 C-218.11300781 177.66691406 -218.91351563 177.77132812 -219.73828125 177.87890625 C-222 178 -222 178 -225 177 C-225 176.34 -225 175.68 -225 175 C-226.98 174.67 -228.96 174.34 -231 174 C-231 173.34 -231 172.68 -231 172 C-231.66 172 -232.32 172 -233 172 C-233 171.34 -233 170.68 -233 170 C-233.57234375 169.86722656 -234.1446875 169.73445312 -234.734375 169.59765625 C-236.97650875 169.00619683 -239.08579619 168.26711146 -241.25 167.4375 C-242.30960938 167.03337891 -242.30960938 167.03337891 -243.390625 166.62109375 C-243.92171875 166.41613281 -244.4528125 166.21117187 -245 166 C-245 165.34 -245 164.68 -245 164 C-245.99 164 -246.98 164 -248 164 C-248 163.34 -248 162.68 -248 162 C-249.65 161.67 -251.3 161.34 -253 161 C-253 187.07 -253 213.14 -253 240 C-254.98 240.99 -254.98 240.99 -257 242 C-257.33 242.99 -257.66 243.98 -258 245 C-260.0625 245.6875 -260.0625 245.6875 -262 246 C-262 246.66 -262 247.32 -262 248 C-264.31 248.33 -266.62 248.66 -269 249 C-269 249.66 -269 250.32 -269 251 C-270.24460783 251.67667998 -271.49596896 252.34094719 -272.75 253 C-273.44609375 253.37125 -274.1421875 253.7425 -274.859375 254.125 C-277 255 -277 255 -281 255 C-281 255.66 -281 256.32 -281 257 C-281.99 257 -282.98 257 -284 257 C-284 257.66 -284 258.32 -284 259 C-285.65 259.33 -287.3 259.66 -289 260 C-289 260.99 -289 261.98 -289 263 C-291.90600261 264.25664978 -293.79604584 265 -297 265 C-297 204.94 -297 144.88 -297 83 C-296.01 83 -295.02 83 -294 83 C-294 83.66 -294 84.32 -294 85 C-293.13375 85.103125 -292.2675 85.20625 -291.375 85.3125 C-287.83316877 86.03398414 -285.15687958 87.27123261 -282 89 C-282 89.66 -282 90.32 -282 91 C-279.34771188 92.07525194 -276.71631546 93.09456151 -274 94 C-274 94.66 -274 95.32 -274 96 C-273.34 96 -272.68 96 -272 96 C-272 96.66 -272 97.32 -272 98 C-271.195625 98.04125 -270.39125 98.0825 -269.5625 98.125 C-265.32820694 99.1650018 -262.70364965 101.0849994 -259.18359375 103.578125 C-256.58766343 105.26849823 -253.93870423 106.06821573 -251 107 C-250.01 108.485 -250.01 108.485 -249 110 C-248.01 110.33 -247.02 110.66 -246 111 C-246 111.66 -246 112.32 -246 113 C-245.07767578 113.18175781 -245.07767578 113.18175781 -244.13671875 113.3671875 C-243.32847656 113.53476563 -242.52023438 113.70234375 -241.6875 113.875 C-240.88699219 114.03742188 -240.08648437 114.19984375 -239.26171875 114.3671875 C-237 115 -237 115 -234 117 C-234 117.66 -234 118.32 -234 119 C-233.13375 119.185625 -233.13375 119.185625 -232.25 119.375 C-229.97664233 120.00648824 -228.0746471 120.88858191 -226 122 C-226 122.66 -226 123.32 -226 124 C-225.01 124 -224.02 124 -223 124 C-223 124.66 -223 125.32 -223 126 C-221.35 126.33 -219.7 126.66 -218 127 C-218 126.34 -218 125.68 -218 125 C-216.56570999 124.32645501 -215.12742943 123.66140299 -213.6875 123 C-212.88699219 122.62875 -212.08648437 122.2575 -211.26171875 121.875 C-209 121 -209 121 -206 121 C-206 120.34 -206 119.68 -206 119 C-205.01 119 -204.02 119 -203 119 C-203 118.34 -203 117.68 -203 117 C-201.35 116.67 -199.7 116.34 -198 116 C-198 115.34 -198 114.68 -198 114 C-197.01 114 -196.02 114 -195 114 C-195 113.34 -195 112.68 -195 112 C-189.25 109 -189.25 109 -187 109 C-187 108.34 -187 107.68 -187 107 C-184.03 106.01 -181.06 105.02 -178 104 C-178 103.34 -178 102.68 -178 102 C-177.01 102 -176.02 102 -175 102 C-175 101.34 -175 100.68 -175 100 C-173.35 99.67 -171.7 99.34 -170 99 C-170 98.34 -170 97.68 -170 97 C-169.01 97 -168.02 97 -167 97 C-167 96.34 -167 95.68 -167 95 C-165.56570999 94.32645501 -164.12742943 93.66140299 -162.6875 93 C-161.88699219 92.62875 -161.08648437 92.2575 -160.26171875 91.875 C-158 91 -158 91 -155 91 C-155 90.34 -155 89.68 -155 89 C-154.34 89 -153.68 89 -153 89 C-153 88.34 -153 87.68 -153 87 C-150.03 86.505 -150.03 86.505 -147 86 C-147 85.34 -147 84.68 -147 84 C-141.25 81 -141.25 81 -139 81 C-139 80.34 -139 79.68 -139 79 C-136.03 78.01 -133.06 77.02 -130 76 C-130 75.34 -130 74.68 -130 74 C-128.2984375 73.319375 -128.2984375 73.319375 -126.5625 72.625 C-122.95278308 71.42904194 -122.95278308 71.42904194 -122 69 C-118.9375 68.375 -118.9375 68.375 -116 68 C-116 67.34 -116 66.68 -116 66 C-114.56570999 65.32645501 -113.12742943 64.66140299 -111.6875 64 C-110.88699219 63.62875 -110.08648437 63.2575 -109.26171875 62.875 C-107 62 -107 62 -104 62 C-104 61.01 -104 60.02 -104 59 C-101.525 58.505 -101.525 58.505 -99 58 C-99 57.34 -99 56.68 -99 56 C-93.25 53 -93.25 53 -91 53 C-91 52.34 -91 51.68 -91 51 C-85.25 48 -85.25 48 -83 48 C-83 47.34 -83 46.68 -83 46 C-79.535 45.505 -79.535 45.505 -76 45 C-76 44.34 -76 43.68 -76 43 C-75.360625 42.71125 -74.72125 42.4225 -74.0625 42.125 C-71.84793921 41.17176549 -71.84793921 41.17176549 -71 39 C-69.00390625 37.9296875 -69.00390625 37.9296875 -66.5625 36.875 C-65.75941406 36.52179688 -64.95632813 36.16859375 -64.12890625 35.8046875 C-62 35 -62 35 -60 35 C-60 34.34 -60 33.68 -60 33 C-54.375 30 -54.375 30 -51 30 C-51 29.34 -51 28.68 -51 28 C-50.01 28 -49.02 28 -48 28 C-48 27.34 -48 26.68 -48 26 C-46.35 25.67 -44.7 25.34 -43 25 C-43 24.34 -43 23.68 -43 23 C-42.01 23 -41.02 23 -40 23 C-40 22.34 -40 21.68 -40 21 C-37.03 20.34 -34.06 19.68 -31 19 C-31 18.34 -31 17.68 -31 17 C-30.01 17 -29.02 17 -28 17 C-28 16.34 -28 15.68 -28 15 C-25.09451118 12.95830515 -23.59857954 12 -20 12 C-20 11.34 -20 10.68 -20 10 C-19.01 10 -18.02 10 -17 10 C-17 9.34 -17 8.68 -17 8 C-15.35 7.67 -13.7 7.34 -12 7 C-12 6.34 -12 5.68 -12 5 C-11.01 5 -10.02 5 -9 5 C-9 4.34 -9 3.68 -9 3 C-8.01 3 -7.02 3 -6 3 C-6 2.34 -6 1.68 -6 1 C-3 0 -3 0 0 0 Z " fill="#FAFAFA" transform="translate(400,116)"/>
<path d="M0 0 C0 60.72 0 121.44 0 184 C-1.65 183.67 -3.3 183.34 -5 183 C-5 182.34 -5 181.68 -5 181 C-7.31 180.67 -9.62 180.34 -12 180 C-12 179.34 -12 178.68 -12 178 C-13.65 177.67 -15.3 177.34 -17 177 C-17 176.34 -17 175.68 -17 175 C-17.99 175 -18.98 175 -20 175 C-20 174.34 -20 173.68 -20 173 C-20.5775 172.87625 -21.155 172.7525 -21.75 172.625 C-24.02335767 171.99351176 -25.9253529 171.11141809 -28 170 C-28 169.34 -28 168.68 -28 168 C-28.5775 167.87496094 -29.155 167.74992188 -29.75 167.62109375 C-32.02742131 166.99243058 -33.90518037 166.14673282 -36 165.0625 C-36.99 164.55396484 -36.99 164.55396484 -38 164.03515625 C-38.66 163.69355469 -39.32 163.35195313 -40 163 C-41.32 162.34 -42.64 161.68 -44 161 C-44 133.61 -44 106.22 -44 78 C-46.31 78.99 -48.62 79.98 -51 81 C-53.9375 81.6875 -53.9375 81.6875 -56 82 C-56 82.66 -56 83.32 -56 84 C-56.75925781 84.40992188 -57.51851562 84.81984375 -58.30078125 85.2421875 C-59.29464844 85.78101563 -60.28851563 86.31984375 -61.3125 86.875 C-62.29863281 87.40867187 -63.28476562 87.94234375 -64.30078125 88.4921875 C-67.09586458 90.00722126 -67.09586458 90.00722126 -70 92 C-70.99 92 -71.98 92 -73 92 C-73 92.66 -73 93.32 -73 94 C-73.94875 94.0825 -74.8975 94.165 -75.875 94.25 C-79.10461791 94.65074923 -79.10461791 94.65074923 -80.375 97.0625 C-80.58125 97.701875 -80.7875 98.34125 -81 99 C-81.99 99 -82.98 99 -84 99 C-84 99.66 -84 100.32 -84 101 C-84.99 101 -85.98 101 -87 101 C-87 101.66 -87 102.32 -87 103 C-88.65 103.33 -90.3 103.66 -92 104 C-92 104.66 -92 105.32 -92 106 C-97.75 109 -97.75 109 -100 109 C-100 109.66 -100 110.32 -100 111 C-100.680625 111.2475 -101.36125 111.495 -102.0625 111.75 C-104.42190448 112.75400191 -106.43914409 113.81627098 -108.625 115.125 C-112 117 -112 117 -115 117 C-115 117.66 -115 118.32 -115 119 C-120.625 122 -120.625 122 -124 122 C-124 122.66 -124 123.32 -124 124 C-125.134375 124.45375 -126.26875 124.9075 -127.4375 125.375 C-131.04721692 126.57095806 -131.04721692 126.57095806 -132 129 C-132.99 129 -133.98 129 -135 129 C-135 129.66 -135 130.32 -135 131 C-136.65 131.33 -138.3 131.66 -140 132 C-140 132.66 -140 133.32 -140 134 C-142.31 134.33 -144.62 134.66 -147 135 C-147.33 135.99 -147.66 136.98 -148 138 C-149.98 137.67 -151.96 137.34 -154 137 C-154 136.34 -154 135.68 -154 135 C-154.99 135 -155.98 135 -157 135 C-157 134.34 -157 133.68 -157 133 C-157.57234375 132.86722656 -158.1446875 132.73445312 -158.734375 132.59765625 C-160.97650875 132.00619683 -163.08579619 131.26711146 -165.25 130.4375 C-166.30960938 130.03337891 -166.30960938 130.03337891 -167.390625 129.62109375 C-168.18726563 129.31365234 -168.18726563 129.31365234 -169 129 C-169 128.34 -169 127.68 -169 127 C-171.65228812 125.92474806 -174.28368454 124.90543849 -177 124 C-177 123.34 -177 122.68 -177 122 C-177.99 122 -178.98 122 -180 122 C-180 121.34 -180 120.68 -180 120 C-181.65 119.67 -183.3 119.34 -185 119 C-185 118.34 -185 117.68 -185 117 C-185.99 117 -186.98 117 -188 117 C-188 116.34 -188 115.68 -188 115 C-189.65 114.67 -191.3 114.34 -193 114 C-193 112.68 -193 111.36 -193 110 C-190.12645755 107.82542733 -188.63563409 107 -185 107 C-185 106.34 -185 105.68 -185 105 C-183.865625 104.62875 -182.73125 104.2575 -181.5625 103.875 C-177.21686858 102.27438487 -173.71070517 99.92053066 -169.98046875 97.20703125 C-168 96 -168 96 -165 96 C-165 95.34 -165 94.68 -165 94 C-164.01 94 -163.02 94 -162 94 C-162 93.34 -162 92.68 -162 92 C-150 86 -150 86 -147.671875 84.9296875 C-145.8168776 84.10405228 -145.8168776 84.10405228 -145 82 C-144.01 82 -143.02 82 -142 82 C-142 81.34 -142 80.68 -142 80 C-139.525 79.505 -139.525 79.505 -137 79 C-137 78.34 -137 77.68 -137 77 C-135.56570999 76.32645501 -134.12742943 75.66140299 -132.6875 75 C-131.88699219 74.62875 -131.08648437 74.2575 -130.26171875 73.875 C-128 73 -128 73 -125 73 C-125 72.01 -125 71.02 -125 70 C-123.73308493 69.32591692 -122.46129251 68.66099503 -121.1875 68 C-120.47980469 67.62875 -119.77210938 67.2575 -119.04296875 66.875 C-117 66 -117 66 -114 66 C-114 65.34 -114 64.68 -114 64 C-112.5437455 63.32880451 -111.08492133 62.66318193 -109.625 62 C-108.81289063 61.62875 -108.00078125 61.2575 -107.1640625 60.875 C-105 60 -105 60 -103 60 C-103 59.01 -103 58.02 -103 57 C-100.41909233 55.68253667 -97.83549542 54.37090383 -95.25 53.0625 C-94.52039063 52.68931641 -93.79078125 52.31613281 -93.0390625 51.93164062 C-92.33007812 51.57392578 -91.62109375 51.21621094 -90.890625 50.84765625 C-90.24125977 50.51773682 -89.59189453 50.18781738 -88.92285156 49.84790039 C-86.96706921 48.98547884 -85.08459306 48.45625821 -83 48 C-83 47.34 -83 46.68 -83 46 C-82.34 46 -81.68 46 -81 46 C-81 45.34 -81 44.68 -81 44 C-79.95199219 43.60167969 -79.95199219 43.60167969 -78.8828125 43.1953125 C-77.97273438 42.84210938 -77.06265625 42.48890625 -76.125 42.125 C-75.22007812 41.77695313 -74.31515625 41.42890625 -73.3828125 41.0703125 C-70.87782993 40.11469105 -70.87782993 40.11469105 -69 38 C-68.01 38 -67.02 38 -66 38 C-66 37.34 -66 36.68 -66 36 C-64.2984375 35.319375 -64.2984375 35.319375 -62.5625 34.625 C-58.95278308 33.42904194 -58.95278308 33.42904194 -58 31 C-52.57692308 28 -52.57692308 28 -50 28 C-50 27.34 -50 26.68 -50 26 C-48.25197854 25.18325204 -46.50149811 24.37176549 -44.75 23.5625 C-43.77546875 23.11003906 -42.8009375 22.65757812 -41.796875 22.19140625 C-39.50748305 21.21617644 -37.42621254 20.5025726 -35 20 C-35 19.34 -35 18.68 -35 18 C-33.989375 17.608125 -32.97875 17.21625 -31.9375 16.8125 C-29.07876454 15.60638038 -26.72992722 14.17376734 -24.25 12.3125 C-21 10 -21 10 -18 10 C-18 9.34 -18 8.68 -18 8 C-17.01 8 -16.02 8 -15 8 C-15 7.34 -15 6.68 -15 6 C-13.35 5.67 -11.7 5.34 -10 5 C-10 4.34 -10 3.68 -10 3 C-9.01 3 -8.02 3 -7 3 C-7 2.34 -7 1.68 -7 1 C-5 0 -5 0 0 0 Z " fill="#FBFBFB" transform="translate(400,197)"/>
<path d="M0 0 C2.475 0.495 2.475 0.495 5 1 C5 1.66 5 2.32 5 3 C5.99 3 6.98 3 8 3 C8 3.66 8 4.32 8 5 C8.7425 5.12375 9.485 5.2475 10.25 5.375 C12.80141485 5.95486701 14.7267573 6.73708739 17 8 C17 8.66 17 9.32 17 10 C17.82757813 10.16822266 17.82757813 10.16822266 18.671875 10.33984375 C21.40065211 11.11360773 23.72772943 12.26817694 26.25 13.5625 C27.14203125 14.01753906 28.0340625 14.47257813 28.953125 14.94140625 C29.62859375 15.29074219 30.3040625 15.64007813 31 16 C31 16.66 31 17.32 31 18 C31.66 18 32.32 18 33 18 C33 18.66 33 19.32 33 20 C34.98 20.33 36.96 20.66 39 21 C39 21.66 39 22.32 39 23 C41.97 23.99 44.94 24.98 48 26 C48 26.66 48 27.32 48 28 C50.65228812 29.07525194 53.28368454 30.09456151 56 31 C56 31.66 56 32.32 56 33 C56.86625 33.185625 56.86625 33.185625 57.75 33.375 C60.02335767 34.00648824 61.9253529 34.88858191 64 36 C64 36.66 64 37.32 64 38 C65.98 38.33 67.96 38.66 70 39 C70 39.66 70 40.32 70 41 C70.99 41 71.98 41 73 41 C73 41.66 73 42.32 73 43 C74.98 43.33 76.96 43.66 79 44 C79 44.66 79 45.32 79 46 C79.66 46 80.32 46 81 46 C81 46.66 81 47.32 81 48 C81.99 48 82.98 48 84 48 C84 48.66 84 49.32 84 50 C85.299375 50.1546875 85.299375 50.1546875 86.625 50.3125 C90.16683123 51.03398414 92.84312042 52.27123261 96 54 C96 54.66 96 55.32 96 56 C96.70125 56.268125 97.4025 56.53625 98.125 56.8125 C101.1649824 58.0681449 104.0727774 59.50235123 107 61 C107 61.66 107 62.32 107 63 C108.65 63.33 110.3 63.66 112 64 C112 64.66 112 65.32 112 66 C112.99 66 113.98 66 115 66 C115 66.66 115 67.32 115 68 C116.65 68.33 118.3 68.66 120 69 C119.6875 70.9375 119.6875 70.9375 119 73 C117.515 73.495 117.515 73.495 116 74 C116 74.66 116 75.32 116 76 C110.375 79 110.375 79 107 79 C107 79.66 107 80.32 107 81 C99.57142857 85.42857143 99.57142857 85.42857143 96 86 C96 86.66 96 87.32 96 88 C94.35 88.33 92.7 88.66 91 89 C91 89.66 91 90.32 91 91 C87.535 91.495 87.535 91.495 84 92 C84 92.66 84 93.32 84 94 C83.01 94 82.02 94 81 94 C81 94.66 81 95.32 81 96 C77.98968256 96.93423645 77.13349732 97.04449911 74 96 C72.97980427 95.0206121 71.97850195 94.02104551 71 93 C70.34 92.67 69.68 92.34 69 92 C69 91.34 69 90.68 69 90 C67.7934375 89.9071875 67.7934375 89.9071875 66.5625 89.8125 C61.8364549 88.73463007 58.12486573 86.48408581 54 84 C54 83.34 54 82.68 54 82 C52.35 81.67 50.7 81.34 49 81 C49 80.34 49 79.68 49 79 C48.01 79 47.02 79 46 79 C45 78 44 77 43 76 C40.40084462 74.80972016 40.40084462 74.80972016 38 74 C38 73.34 38 72.68 38 72 C37.42765625 71.86722656 36.8553125 71.73445313 36.265625 71.59765625 C34.02349125 71.00619683 31.91420381 70.26711146 29.75 69.4375 C29.04359375 69.16808594 28.3371875 68.89867187 27.609375 68.62109375 C27.07828125 68.41613281 26.5471875 68.21117187 26 68 C26 67.34 26 66.68 26 66 C25.01 66 24.02 66 23 66 C23 65.34 23 64.68 23 64 C22.34 64 21.68 64 21 64 C21 63.34 21 62.68 21 62 C19.6078125 61.814375 19.6078125 61.814375 18.1875 61.625 C15 61 15 61 12 59 C12 58.34 12 57.68 12 57 C11.113125 56.71125 10.22625 56.4225 9.3125 56.125 C1.18181818 53.36363636 1.18181818 53.36363636 0 51 C-0.0902835 49.36582405 -0.11755658 47.72797163 -0.11352539 46.09130859 C-0.11344986 45.07040131 -0.11337433 44.04949402 -0.11329651 42.99765015 C-0.10813522 41.89240997 -0.10297394 40.7871698 -0.09765625 39.6484375 C-0.0962413 38.5192691 -0.09482635 37.39010071 -0.09336853 36.22671509 C-0.08775744 32.60945012 -0.07520303 28.99224636 -0.0625 25.375 C-0.05748643 22.92708423 -0.05292328 20.47916748 -0.04882812 18.03125 C-0.0377844 12.02081234 -0.02103544 6.01041054 0 0 Z " fill="#F9F9F9" transform="translate(103,118)"/>
<path d="M0 0 C0 60.72 0 121.44 0 184 C-1.65 183.67 -3.3 183.34 -5 183 C-4.01 182.67 -3.02 182.34 -2 182 C-1.67 122.27 -1.34 62.54 -1 1 C-2.65 1.33 -4.3 1.66 -6 2 C-6 2.66 -6 3.32 -6 4 C-7.32 4.33 -8.64 4.66 -10 5 C-10 4.34 -10 3.68 -10 3 C-9.01 3 -8.02 3 -7 3 C-7 2.34 -7 1.68 -7 1 C-5 0 -5 0 0 0 Z " fill="#D1D1D1" transform="translate(400,197)"/>
<path d="M0 0 C1.98 0 3.96 0 6 0 C6.33 28.05 6.66 56.1 7 85 C6.01 84.67 5.02 84.34 4 84 C4 56.61 4 29.22 4 1 C2.68 0.67 1.36 0.34 0 0 Z " fill="#ABABAB" transform="translate(352,274)"/>
<path d="M0 0 C0.66 0.33 1.32 0.66 2 1 C1.19175781 1.73605469 0.38351563 2.47210938 -0.44921875 3.23046875 C-1.52870221 4.21608409 -2.60812612 5.20176465 -3.6875 6.1875 C-4.48317383 6.91163086 -4.48317383 6.91163086 -5.29492188 7.65039062 C-8.61673615 10.6868957 -11.83680628 13.79676585 -15 17 C-15.96418006 17.96550699 -16.92904864 18.93032679 -17.89453125 19.89453125 C-18.61479492 20.61479492 -18.61479492 20.61479492 -19.34960938 21.34960938 C-21.56640625 23.56640625 -23.78320312 25.78320312 -26 28 C-26.66 27.67 -27.32 27.34 -28 27 C-22.8901483 21.0114701 -17.52073038 15.47094262 -11.75 10.125 C-11.16009277 9.5781958 -10.57018555 9.0313916 -9.96240234 8.46801758 C-6.73839532 5.51047623 -3.45532228 2.68891621 0 0 Z " fill="#575757" transform="translate(97,61)"/>
<path d="M0 0 C2.475 0.495 2.475 0.495 5 1 C5 1.66 5 2.32 5 3 C5.99 3.33 6.98 3.66 8 4 C6.02 4 4.04 4 2 4 C1.67 19.51 1.34 35.02 1 51 C0.67 51 0.34 51 0 51 C0 34.17 0 17.34 0 0 Z " fill="#CCCCCC" transform="translate(103,118)"/>
<path d="M0 0 C1.98 0 3.96 0 6 0 C5.34 0.66 4.68 1.32 4 2 C3.01 2 2.02 2 1 2 C1 2.66 1 3.32 1 4 C-6.42857143 8.42857143 -6.42857143 8.42857143 -10 9 C-10 9.66 -10 10.32 -10 11 C-11.65 11.33 -13.3 11.66 -15 12 C-15 12.66 -15 13.32 -15 14 C-17.31 14.33 -19.62 14.66 -22 15 C-21 13.0625 -21 13.0625 -19 11 C-16.30075428 10.33450549 -13.79368363 10.18319237 -11 10 C-10.67 8.35 -10.34 6.7 -10 5 C-9.21625 5.061875 -8.4325 5.12375 -7.625 5.1875 C-6.75875 5.125625 -5.8925 5.06375 -5 5 C-4.34 4.01 -3.68 3.02 -3 2 C-2.34 2.33 -1.68 2.66 -1 3 C-0.67 2.01 -0.34 1.02 0 0 Z " fill="#ACACAC" transform="translate(209,195)"/>
<path d="M0 0 C1.32 0 2.64 0 4 0 C4 0.66 4 1.32 4 2 C3.01 2 2.02 2 1 2 C1 2.66 1 3.32 1 4 C-0.65 4.33 -2.3 4.66 -4 5 C-4 5.66 -4 6.32 -4 7 C-5.32 7.33 -6.64 7.66 -8 8 C-7.75 6.125 -7.75 6.125 -7 4 C-5.125 2.6875 -5.125 2.6875 -3 2 C-2.01 2.33 -1.02 2.66 0 3 C0 2.01 0 1.02 0 0 Z " fill="#AAAAAA" transform="translate(312,296)"/>
<path d="M0 0 C0.66 0.33 1.32 0.66 2 1 C1.0625 2.875 1.0625 2.875 -1 5 C-3.95485056 5.95351561 -6.9369519 6.51196718 -10 7 C-10 7.66 -10 8.32 -10 9 C-11.32 8.67 -12.64 8.34 -14 8 C-13.01 8 -12.02 8 -11 8 C-11 7.34 -11 6.68 -11 6 C-9.35 5.67 -7.7 5.34 -6 5 C-6 4.34 -6 3.68 -6 3 C-4.03533587 1.93224776 -2.03144641 0.93446535 0 0 Z " fill="#A3A3A3" transform="translate(269,271)"/>
<path d="M0 0 C1.32 0.33 2.64 0.66 4 1 C2.6875 2.5 2.6875 2.5 1 4 C0.01 4 -0.98 4 -2 4 C-2 4.66 -2 5.32 -2 6 C-3.65 6.33 -5.3 6.66 -7 7 C-7 7.66 -7 8.32 -7 9 C-7.99 8.67 -8.98 8.34 -10 8 C-9.34 8 -8.68 8 -8 8 C-8 7.34 -8 6.68 -8 6 C-7.34 6 -6.68 6 -6 6 C-6 5.01 -6 4.02 -6 3 C-4.02 3 -2.04 3 0 3 C0 2.01 0 1.02 0 0 Z " fill="#ADADAD" transform="translate(267,322)"/>
<path d="M0 0 C0.33 0.66 0.66 1.32 1 2 C0.4225 2.0825 -0.155 2.165 -0.75 2.25 C-3.16311205 2.85611294 -3.16311205 2.85611294 -4.875 5 C-7.52218926 7.49147225 -9.4426338 7.67660307 -13 8 C-12.67 7.34 -12.34 6.68 -12 6 C-11.34 6 -10.68 6 -10 6 C-10 5.34 -10 4.68 -10 4 C-6.7 2.68 -3.4 1.36 0 0 Z " fill="#B2B2B2" transform="translate(360,219)"/>
<path d="M0 0 C-0.99 0.33 -1.98 0.66 -3 1 C-3 1.66 -3 2.32 -3 3 C-5.8125 4.5625 -5.8125 4.5625 -9 6 C-9.99 5.67 -10.98 5.34 -12 5 C-11.34 5 -10.68 5 -10 5 C-10 4.34 -10 3.68 -10 3 C-9.34 3 -8.68 3 -8 3 C-8 2.34 -8 1.68 -8 1 C-2.25 -1.125 -2.25 -1.125 0 0 Z " fill="#AAAAAA" transform="translate(230,267)"/>
<path d="M0 0 C0.33 0.66 0.66 1.32 1 2 C0.34 2 -0.32 2 -1 2 C-0.67 2.99 -0.34 3.98 0 5 C-0.99 6.485 -0.99 6.485 -2 8 C-2.66 7.01 -3.32 6.02 -4 5 C-5.32 5.33 -6.64 5.66 -8 6 C-8 5.34 -8 4.68 -8 4 C-7.34 4 -6.68 4 -6 4 C-6 3.34 -6 2.68 -6 2 C-4.02 1.34 -2.04 0.68 0 0 Z " fill="#B9B9B9" transform="translate(325,239)"/>
<path d="M0 0 C0.33 0.66 0.66 1.32 1 2 C2.32796291 2.35412344 3.66216607 2.68521554 5 3 C5.99 3.66 6.98 4.32 8 5 C3.25 6.125 3.25 6.125 1 5 C1 4.34 1 3.68 1 3 C0.01 3 -0.98 3 -2 3 C-2 2.34 -2 1.68 -2 1 C-1.34 0.67 -0.68 0.34 0 0 Z " fill="#C8C8C8" transform="translate(245,329)"/>
<path d="M0 0 C1.98 0 3.96 0 6 0 C5.34 0.66 4.68 1.32 4 2 C3.01 2 2.02 2 1 2 C1 2.66 1 3.32 1 4 C-2.465 5.485 -2.465 5.485 -6 7 C-5.34 5.68 -4.68 4.36 -4 3 C-2.68 3 -1.36 3 0 3 C0 2.01 0 1.02 0 0 Z " fill="#B5B5B5" transform="translate(333,203)"/>
<path d="M0 0 C0 0.99 0 1.98 0 3 C-2.97 3.66 -5.94 4.32 -9 5 C-9 4.34 -9 3.68 -9 3 C-3.375 0 -3.375 0 0 0 Z " fill="#ADADAD" transform="translate(306,251)"/>
<path d="M0 0 C0 0.99 0 1.98 0 3 C-2.31 3.33 -4.62 3.66 -7 4 C-7 4.66 -7 5.32 -7 6 C-8.32 6 -9.64 6 -11 6 C-10.67 5.34 -10.34 4.68 -10 4 C-9.34 4.33 -8.68 4.66 -8 5 C-8 4.34 -8 3.68 -8 3 C-2.25 0 -2.25 0 0 0 Z " fill="#ADADAD" transform="translate(190,238)"/>
<path d="M0 0 C0.763125 0.0825 1.52625 0.165 2.3125 0.25 C1.9825 1.24 1.6525 2.23 1.3125 3.25 C-0.9975 3.58 -3.3075 3.91 -5.6875 4.25 C-3.34903846 0.31153846 -3.34903846 0.31153846 0 0 Z " fill="#BDBDBD" transform="translate(192.6875,205.75)"/>
<path d="M0 0 C2.92879371 0.62759865 5.36095629 1.58622659 8 3 C8 3.66 8 4.32 8 5 C8.99 5.33 9.98 5.66 11 6 C9.68 6 8.36 6 7 6 C7 5.34 7 4.68 7 4 C4.03 3.505 4.03 3.505 1 3 C0.67 2.01 0.34 1.02 0 0 Z " fill="#515151" transform="translate(235,327)"/>
<path d="M0 0 C0.66 0.33 1.32 0.66 2 1 C-1.96 4.465 -1.96 4.465 -6 8 C-6.66 7.67 -7.32 7.34 -8 7 C-5.36 4.69 -2.72 2.38 0 0 Z " fill="#5F5F5F" transform="translate(97,61)"/>
<path d="M0 0 C-1.32 0.33 -2.64 0.66 -4 1 C-4 1.66 -4 2.32 -4 3 C-5.65 3.33 -7.3 3.66 -9 4 C-8.25 2.0625 -8.25 2.0625 -7 0 C-4.04680182 -1.23843794 -3.12561472 -1.04187157 0 0 Z " fill="#8C8C8C" transform="translate(142,361)"/>
<path d="M0 0 C2.97 0.495 2.97 0.495 6 1 C6.33 2.32 6.66 3.64 7 5 C5.68 4.67 4.36 4.34 3 4 C3 3.34 3 2.68 3 2 C2.01 1.67 1.02 1.34 0 1 C0 0.67 0 0.34 0 0 Z " fill="#AEAEAE" transform="translate(228,322)"/>
<path d="M0 0 C1.65 0.33 3.3 0.66 5 1 C3.68 2.32 2.36 3.64 1 5 C0.01 4.67 -0.98 4.34 -2 4 C-1.34 2.68 -0.68 1.36 0 0 Z " fill="#B3B3B3" transform="translate(373,179)"/>
<path d="" fill="#FFFFFF" transform="translate(0,0)"/>
<path d="" fill="#FFFFFF" transform="translate(0,0)"/>
<path d="" fill="#FFFFFF" transform="translate(0,0)"/>
<path d="" fill="#FFFFFF" transform="translate(0,0)"/>
<path d="" fill="#FFFFFF" transform="translate(0,0)"/>
<path d="" fill="#FFFFFF" transform="translate(0,0)"/>
<path d="" fill="#FFFFFF" transform="translate(0,0)"/>
<path d="" fill="#FFFFFF" transform="translate(0,0)"/>
<path d="" fill="#FFFFFF" transform="translate(0,0)"/>
<path d="" fill="#FFFFFF" transform="translate(0,0)"/>
<path d="" fill="#FFFFFF" transform="translate(0,0)"/>
<path d="" fill="#FFFFFF" transform="translate(0,0)"/>
<path d="" fill="#FFFFFF" transform="translate(0,0)"/>
<path d="" fill="#FFFFFF" transform="translate(0,0)"/>
<path d="" fill="#FFFFFF" transform="translate(0,0)"/>
<path d="" fill="#FFFFFF" transform="translate(0,0)"/>
<path d="" fill="#FFFFFF" transform="translate(0,0)"/>
<path d="" fill="#FFFFFF" transform="translate(0,0)"/>
<path d="" fill="#FFFFFF" transform="translate(0,0)"/>
</svg>
