<?xml version="1.0" standalone="no"?>
<!DOCTYPE svg PUBLIC "-//W3C//DTD SVG 20010904//EN"
 "http://www.w3.org/TR/2001/REC-SVG-20010904/DTD/svg10.dtd">
<svg version="1.0" xmlns="http://www.w3.org/2000/svg"
 width="208.000000pt" height="208.000000pt" viewBox="0 0 208.000000 208.000000"
 preserveAspectRatio="xMidYMid meet">

<g transform="translate(0.000000,208.000000) scale(0.100000,-0.100000)"
fill="#000000" stroke="none">
<path d="M1650 1681 c-722 -424 -1016 -594 -1026 -594 -7 0 -114 59 -238 131
-124 73 -228 132 -231 132 -3 0 -5 -250 -5 -556 0 -306 4 -554 8 -552 4 2 63
35 130 73 l121 70 2 230 c1 127 2 238 1 248 -1 9 2 17 7 17 5 0 51 -25 102
-55 52 -30 98 -55 103 -55 4 0 198 111 430 247 231 135 527 308 656 384 l235
137 3 156 c1 86 -1 156 -5 155 -5 0 -136 -76 -293 -168z"/>
<path d="M152 1684 l3 -157 225 -133 c124 -73 232 -133 240 -133 20 -1 255
136 255 149 0 8 -599 366 -698 416 l-28 15 3 -157z"/>
<path d="M1363 1025 c-321 -187 -583 -342 -583 -345 0 -3 58 -40 130 -82 l130
-77 315 185 c174 101 320 184 325 184 6 0 10 -98 10 -252 l1 -253 127 -72 127
-72 3 285 c1 157 1 410 0 562 l-3 277 -582 -340z"/>
</g>
</svg>
