<svg xmlns="http://www.w3.org/2000/svg" width="208" height="208" viewBox="0 0 208 208" version="1.1"><path d="M 154.497 45.616 C 132.499 58.502, 109.775 71.802, 104 75.171 C 98.225 78.540, 87.047 85.108, 79.161 89.766 C 71.274 94.423, 64.060 98.433, 63.130 98.676 C 62.174 98.926, 53.406 94.397, 42.969 88.262 C 15.591 72.169, 15.315 72.018, 14.632 72.702 C 13.729 73.604, 13.846 183.796, 14.750 184.302 C 15.162 184.534, 21.350 181.284, 28.500 177.080 L 41.500 169.438 41.768 145.219 C 41.915 131.899, 42.312 121, 42.649 121 C 42.987 121, 47.326 123.325, 52.291 126.167 C 57.257 129.008, 61.810 131.332, 62.410 131.330 C 63.359 131.327, 81.625 120.858, 124 96.028 C 147.525 82.244, 164.935 72.029, 180.250 63.026 L 196 53.768 196 38.443 C 196 30.014, 195.661 22.909, 195.247 22.653 C 194.833 22.397, 176.496 32.730, 154.497 45.616 M 14.574 23.760 C 14.258 24.075, 14 31.205, 14 39.603 L 14 54.872 24.750 61.289 C 30.663 64.818, 41.476 71.198, 48.779 75.468 L 62.059 83.230 73.779 76.499 C 87.989 68.338, 88.988 67.516, 86.964 65.648 C 85.620 64.407, 65.240 52.308, 29.324 31.428 C 21.527 26.895, 14.889 23.444, 14.574 23.760 M 159.999 91.162 C 141.024 102.251, 114.925 117.492, 102 125.032 C 89.075 132.572, 78.500 139.351, 78.500 140.097 C 78.500 141.209, 102.218 156, 104 156 C 104.295 156, 118.703 147.734, 136.018 137.631 L 167.500 119.262 168 144.337 L 168.500 169.412 176 173.867 C 190.444 182.448, 194.861 184.806, 195.428 184.238 C 196.292 183.374, 196.114 71, 195.249 71 C 194.835 71, 178.973 80.073, 159.999 91.162" stroke="none" fill="#ffffff" fill-rule="evenodd"/></svg>